<?xml version="1.0" encoding="utf-8"?>
<!-- Generator: Adobe Illustrator 25.0.1, SVG Export Plug-In . SVG Version: 6.00 Build 0)  -->
<svg version="1.1" id="Calque_1" xmlns="http://www.w3.org/2000/svg" xmlns:xlink="http://www.w3.org/1999/xlink" x="0px" y="0px"
	 viewBox="0 0 221 165" style="enable-background:new 0 0 221 165;" xml:space="preserve">
<style type="text/css">
	.st0{fill:#009EE2;}
	.st1{fill-rule:evenodd;clip-rule:evenodd;fill:#009EE2;}
	.st2{fill-rule:evenodd;clip-rule:evenodd;fill:#BD1622;}
	.st3{fill:#BD1622;}
</style>
<g>
	<g>
		<g>
			<path class="st0" d="M17.58,122.86h-3.52c-0.91,0-1.66,0.29-2.24,0.87c-0.63,0.62-0.95,1.47-0.95,2.55
				c0,0.61,0.15,1.19,0.45,1.73c0.3,0.55,0.69,0.96,1.16,1.24c0.47,0.28,1,0.42,1.58,0.42c0.67,0,1.31-0.14,1.94-0.43
				c0.7-0.32,1.23-0.76,1.6-1.33v3.6c-0.76,0.84-1.95,1.26-3.58,1.26c-2.19,0-3.93-0.65-5.2-1.95c-0.59-0.6-1.04-1.35-1.36-2.27
				c-0.31-0.87-0.46-1.78-0.46-2.75c0-0.8,0.14-1.58,0.41-2.34c0.58-1.6,1.69-2.72,3.33-3.36c0.83-0.32,1.8-0.48,2.9-0.48h3.96
				V122.86z M14.35,124.5h3.23v3.23h-3.23V124.5z"/>
			<path class="st0" d="M24.52,129.12c0-0.61-0.12-1-0.36-1.19c-0.17-0.14-0.53-0.21-1.08-0.21h-3.83v-3.23h5.27
				c0.49,0,0.74-0.27,0.74-0.8c0-0.56-0.25-0.84-0.74-0.84h-5.27v-3.23h6.64c0.77,0,1.42,0.17,1.96,0.5
				c1.09,0.68,1.64,1.72,1.64,3.12c0,1.22-0.43,2.1-1.3,2.66c-0.47,0.3-0.99,0.45-1.56,0.45c-0.05,0-0.09,0.01-0.12,0.04l0.6,0.1
				c0.18,0.03,0.37,0.09,0.57,0.19c0.08,0.04,0.19,0.11,0.32,0.22c0.27,0.16,0.4,0.44,0.4,0.82v4.87h-3.88L24.52,129.12z"/>
			<path class="st0" d="M37.58,119.28c1.15,0,2.23,0.28,3.23,0.85c1.06,0.61,1.9,1.46,2.51,2.56c0.6,1.06,0.89,2.19,0.89,3.4
				c0,1.87-0.65,3.48-1.94,4.81c-0.42,0.43-0.88,0.8-1.38,1.1c-1.03,0.63-2.14,0.94-3.32,0.94c-1.12,0-2.19-0.28-3.19-0.86
				c-1.04-0.59-1.88-1.43-2.51-2.49c-0.66-1.1-0.99-2.26-0.99-3.51c0-1.27,0.32-2.43,0.96-3.51c0.6-0.98,1.39-1.77,2.39-2.38
				C35.28,119.59,36.39,119.28,37.58,119.28z M37.59,123.21c-0.74,0-1.38,0.25-1.93,0.76c-0.59,0.55-0.89,1.26-0.89,2.12
				c0,0.49,0.12,0.97,0.37,1.44c0.52,0.99,1.34,1.48,2.44,1.48c0.71,0,1.34-0.27,1.88-0.8c0.58-0.57,0.87-1.28,0.87-2.12
				c0-1.13-0.47-1.97-1.41-2.51C38.5,123.34,38.05,123.21,37.59,123.21z"/>
			<path class="st0" d="M45.79,119.63h3.88v8.25c0,0.67,0.18,1.07,0.55,1.21c0.21,0.08,0.53,0.11,0.96,0.11h2.38v-9.57h3.88v12.96
				h-7.78c-1.68,0-2.78-0.41-3.29-1.23c-0.39-0.63-0.59-1.76-0.59-3.37V119.63z"/>
			<path class="st0" d="M59.25,119.63h5.35c1.14,0,2.02,0.11,2.66,0.33c1.41,0.49,2.12,1.73,2.12,3.7c0,1.93-0.76,3.14-2.27,3.64
				c-0.72,0.23-1.55,0.35-2.49,0.35h-1.48v4.94h-3.88v-8.09h5.31c0.24,0,0.42-0.08,0.55-0.24c0.15-0.14,0.22-0.33,0.22-0.56
				c0-0.22-0.06-0.42-0.19-0.61c-0.15-0.15-0.34-0.23-0.55-0.23h-5.35V119.63z"/>
			<path class="st0" d="M70.45,119.63h9.12v3.23h-9.12V119.63z M79.57,124.5v3.23h-5.24v1.63h5.24v3.23h-9.12v-8.09H79.57z"/>
			<path class="st0" d="M92.02,119.63c2.63,0,3.95,1.08,3.95,3.23v9.73h-3.95L92,123.48c0-0.32-0.2-0.52-0.59-0.6h-1.02l-5.48-0.02
				v9.73h-3.88v-12.96H92.02z M90.39,124.5v8.09h-3.86v-8.09H90.39z"/>
			<path class="st0" d="M97.73,119.63h9.12v3.23h-9.12V119.63z M106.85,124.5v3.23h-5.24v1.63h5.24v3.23h-9.12v-8.09H106.85z"/>
			<path class="st0" d="M115.99,119.63c1.18,0,2.03,0.19,2.57,0.56c0.71,0.49,1.06,1.38,1.06,2.67v9.73h-4.18v-8.33
				c0-0.46,0-0.72-0.01-0.76c-0.04-0.31-0.15-0.5-0.33-0.58c-0.16-0.04-0.48-0.06-0.94-0.06h-1.97v9.73h-3.88v-12.96H115.99z"/>
			<path class="st0" d="M129.77,119.59v3.27h-8.36v-3.27H129.77z M125.56,124.5v3.95c0,0.44,0.17,0.72,0.5,0.82
				c0.21,0.06,0.56,0.09,1.05,0.09h2.11v3.23h-4.23c-0.81,0-1.44-0.15-1.89-0.44c-0.56-0.35-0.91-0.97-1.07-1.83
				c-0.07-0.39-0.1-1.08-0.1-2.07v-3.75H125.56z"/>
			<path class="st0" d="M142.26,119.63l-0.09,0.25c-0.02,0.12-0.05,0.21-0.08,0.28l-0.02,0.28c0.12,0.67,0.4,1.37,0.85,2.09
				c0.23,0.37,0.66,0.97,1.3,1.78l0.2,0.25c0.24,0.32,0.47,0.63,0.67,0.92c0.14,0.21,0.34,0.56,0.6,1.05
				c0.31,0.6,0.47,1.28,0.47,2.04c0,1.58-0.69,2.74-2.07,3.48c-0.69,0.37-1.48,0.55-2.4,0.55h-4.1v-3.23h3.66
				c0.31,0,0.57-0.11,0.79-0.34c0.22-0.23,0.33-0.52,0.33-0.88c0-0.46-0.24-1.01-0.73-1.65c-0.14-0.18-0.4-0.5-0.76-0.96l-1.32-1.71
				c-0.11-0.14-0.23-0.34-0.37-0.6c-0.08-0.15-0.22-0.42-0.42-0.84c-0.23-0.51-0.34-1.1-0.34-1.76c0-0.21,0.05-0.54,0.14-0.99
				H142.26z"/>
			<path class="st0" d="M151.69,119.63h4.16l4.33,12.96H147.5l2.51-8.09h3.25l-1.29,5.1h3.42L151.69,119.63z"/>
			<path class="st0" d="M161.55,122.86v-3.23h5.85c1.91,0,3.36,0.51,4.34,1.52c0.64,0.65,1.12,1.4,1.44,2.23
				c0.34,0.89,0.52,1.75,0.52,2.58c0,1.6-0.39,2.96-1.16,4.07c-0.4,0.58-0.83,1.01-1.3,1.31c-0.59,0.38-1.34,0.69-2.25,0.92
				c-0.85,0.22-1.64,0.32-2.38,0.32h-5.05v-8.13h3.88v5.03c1.94,0,3.25-0.57,3.93-1.72c0.29-0.48,0.43-1.04,0.43-1.67
				c0-1.24-0.42-2.17-1.27-2.78c-0.41-0.3-0.88-0.45-1.41-0.45H161.55z"/>
			<path class="st0" d="M175.26,122.86v-3.23h5.85c1.91,0,3.36,0.51,4.34,1.52c0.64,0.65,1.12,1.4,1.44,2.23
				c0.34,0.89,0.52,1.75,0.52,2.58c0,1.6-0.39,2.96-1.16,4.07c-0.4,0.58-0.83,1.01-1.3,1.31c-0.59,0.38-1.34,0.69-2.25,0.92
				c-0.85,0.22-1.64,0.32-2.38,0.32h-5.05v-8.13h3.88v5.03c1.94,0,3.25-0.57,3.93-1.72c0.29-0.48,0.43-1.04,0.43-1.67
				c0-1.24-0.42-2.17-1.27-2.78c-0.41-0.3-0.88-0.45-1.41-0.45H175.26z"/>
			<path class="st0" d="M193.14,119.63h4.16l4.33,12.96h-12.67l2.51-8.09h3.25l-1.29,5.1h3.42L193.14,119.63z"/>
			<path class="st0" d="M214,119.63c2.63,0,3.95,1.08,3.95,3.23v9.73H214l-0.02-9.11c0-0.32-0.2-0.52-0.59-0.6h-1.02l-5.48-0.02
				v9.73H203v-12.96H214z M212.37,124.5v8.09h-3.86v-8.09H212.37z"/>
		</g>
		<path class="st1" d="M82.03,74.22c-0.39-0.77-0.26-1.54-0.26-2.28c-0.01-16.13-0.01-32.26-0.01-48.38c0-2.62,0.01-2.62,2.16-2.63
			c0.34,0,0.68,0.05,1.02,0c1.19-0.2,1.49,0.53,1.49,1.82C86.4,37.83,86.41,52.92,86.42,68c0,0.86-0.14,1.58-0.7,2.17
			C84.47,71.48,83.54,73.22,82.03,74.22z"/>
		<path class="st1" d="M90.98,42.08c0-6.32,0.03-12.64-0.02-18.97c-0.01-1.62,0.39-2.44,1.83-2.19c0.28,0.05,0.58,0,0.87,0.01
			c1.72,0.01,1.86,0.17,1.87,2.32c0.01,3.02,0,6.03,0,9.05c0,7.6-0.07,15.19,0.04,22.79c0.03,2.32-0.34,4.21-1.93,5.61
			c-0.79,0.7-1.38,2.48-2.23,2.1c-0.99-0.44-0.4-2.17-0.41-3.32C90.95,53.68,90.98,47.88,90.98,42.08z"/>
		<path class="st1" d="M100.31,52.04c-0.31-0.61-0.2-1.5-0.2-2.35c-0.01-8.81-0.01-17.62-0.01-26.44c0-2.32,0.01-2.32,1.92-2.33
			c0.43,0,0.87,0.02,1.3,0c1.03-0.05,1.5,0.54,1.49,1.78c-0.01,7.83-0.01,15.66,0.01,23.48c0,0.71-0.2,1.24-0.61,1.68
			C102.92,49.25,101.63,50.63,100.31,52.04z"/>
		<path class="st1" d="M113.53,52.2c-1.34-1.56-2.61-3.05-3.89-4.51c-0.45-0.51-0.44-1.12-0.44-1.76c0-7.72,0.01-15.44-0.02-23.16
			c0-1.36,0.46-1.88,1.56-1.84c3.21,0.12,3.1-0.74,3.1,3.54c0,8.42,0,16.84,0,25.25C113.83,50.52,113.96,51.35,113.53,52.2z"/>
		<path class="st1" d="M131.93,47.28c0,7.83,0.01,15.66,0,23.49c0,0.72,0.22,1.65-0.51,2.01c-0.68,0.33-0.94-0.6-1.39-0.99
			c-1.89-1.65-2.37-3.84-2.35-6.63c0.12-13.86,0.05-27.72,0.06-41.58c0-0.69-0.29-1.74,0.59-1.88c1.11-0.19,2.32-0.53,3.37,0.28
			c0.43,0.33,0.22,1.08,0.22,1.65C131.94,31.5,131.93,39.39,131.93,47.28z"/>
		<path class="st1" d="M122.74,41.94c0,6.09,0,12.17-0.01,18.26c0,0.67,0.25,1.6-0.32,1.94c-0.63,0.37-0.9-0.61-1.34-1
			c-1.91-1.67-2.5-3.85-2.46-6.73c0.15-10.2,0.05-20.41,0.07-30.62c0-0.8-0.37-1.99,0.53-2.29c1-0.33,2.12-0.4,3.12,0.08
			c0.57,0.28,0.39,1.11,0.39,1.73C122.74,29.53,122.74,35.74,122.74,41.94z"/>
		<g>
			<path class="st1" d="M87.35,81.52c2.24,0,4.48,0.01,6.72-0.01c0.79,0,1.22,0.16,1.47,1.32c1.07,4.86,3.51,8.35,7.59,9.96
				c6.09,2.42,12.16-1.25,14.48-8.14c0.26-0.77,0.43-1.59,0.58-2.4c0.1-0.55,0.25-0.82,0.76-0.82c3.54,0.01,7.09-0.02,10.63-0.03
				c0.19,0,0.47-0.13,0.56,0.19c0.1,0.34-0.15,0.5-0.32,0.71c-3.83,4.63-7.65,9.27-11.48,13.9c-3.49,4.22-6.97,8.44-10.46,12.66
				c-0.97,1.18-0.98,1.18-1.95,0.03c-7.31-8.71-14.62-17.42-21.91-26.16c-0.21-0.25-0.7-0.44-0.51-0.89
				c0.16-0.39,0.61-0.18,0.93-0.19c0.97-0.02,1.94-0.01,2.91-0.01C87.35,81.6,87.35,81.56,87.35,81.52z"/>
			<path class="st1" d="M124.13,77.6c-1.57,0-3.15-0.02-4.72,0.01c-0.74,0.01-0.98-0.3-1.11-1.24c-0.28-1.95-1.05-3.71-2.05-5.31
				c-1.67-2.66-3.89-4.58-6.54-5.14c-3.29-0.69-6.57-0.51-9.55,2.07c-1.89,1.63-3.2,3.68-4.19,6.05c-0.34,0.81-0.81,1.78-0.7,2.86
				c0.06,0.59-0.24,0.72-0.68,0.72c-3.27-0.01-6.54,0-9.81-0.01c-0.2,0-0.47,0.08-0.57-0.21c-0.15-0.44,0.19-0.66,0.38-0.89
				c3.67-4.43,7.35-8.85,11.03-13.26c3.53-4.24,7.07-8.46,10.58-12.73c0.53-0.64,0.79-0.55,1.28,0.04
				c4.14,4.99,8.32,9.95,12.47,14.94c2.66,3.2,5.29,6.43,7.93,9.64c0.42,0.51,0.9,0.96,1.31,1.5c0.16,0.21,0.48,0.45,0.33,0.82
				c-0.13,0.3-0.44,0.17-0.66,0.17C127.28,77.61,125.71,77.6,124.13,77.6z"/>
		</g>
	</g>
	<path class="st2" d="M156.74,87.62c0,0-0.02,0.03-0.03,0.05c-0.01-0.21-0.07-0.4-0.31-0.5c-0.42-0.18-0.61,0.37-0.86,0.67
		c-2.85,3.42-5.69,6.85-8.53,10.28c-0.93,1.12-0.98,1.12-1.94-0.03c-2.01-2.41-4.05-4.81-5.98-7.32c-0.91-1.2-0.95-1.16,0.01-2.31
		c5.56-6.71,11.1-13.42,16.68-20.11c0.6-0.72,0.86-1.48,0.84-2.51c-0.05-3.23-0.02-6.47-0.05-9.7c-0.01-0.48,0.24-1.16-0.19-1.4
		c-0.52-0.28-0.76,0.45-1.05,0.81c-10.52,12.68-21.04,25.36-31.55,38.05c-4.79,5.78-9.57,11.55-14.36,17.33
		c-0.2,0.24-0.57,0.46-0.45,0.87c0.13,0.45,0.52,0.26,0.8,0.27c3.45,0.02,6.9,0.03,10.35,0.02c4.83-0.01,9.67-0.08,14.5-0.05
		c2.52,0.02,5.04,0.07,7.5-0.55c-0.01,0.05-0.02,0.1-0.01,0.12c1.22-0.41,2.35-0.88,3.38-1.4c0.4-0.18,0.79-0.38,1.16-0.63
		C155.57,104.41,157.2,95.01,156.74,87.62z"/>
	<path class="st2" d="M105.13,111.55C89.57,93.47,74.01,75.39,58.45,57.32c-0.22-0.26-0.4-0.66-0.85-0.58
		c-0.01,0.36-0.03,0.72-0.02,1.08c0.04,3.3,0.11,6.61,0.11,9.91c0,0.99,0.27,1.7,0.86,2.38c5.7,6.58,11.37,13.19,17.05,19.79
		c0.35,0.4,0.75,0.76,0.9,1.34c-2.38,2.95-4.77,5.89-7.13,8.87c-0.56,0.71-0.95,0.77-1.54,0.03c-0.91-1.17-1.9-2.24-2.86-3.35
		c-2.14-2.46-4.29-4.92-6.43-7.38c-0.06-0.12-0.14-0.2-0.23-0.22l-0.15-0.32c0,0.12,0,0.25,0,0.37c-0.01,0.01-0.02,0.01-0.03,0.02
		c-0.16,0.15-0.11,0.36-0.02,0.55c-0.15,1.7-0.01,3.38,0.23,5.04c0.18,1.24,0.41,2.47,0.78,3.65c0.17,0.63,0.38,1.27,0.63,1.92
		c-0.03,0.16,0.03,0.29,0.15,0.4c0.15,0.37,0.32,0.75,0.5,1.12c0.01,0.31,0.12,0.56,0.37,0.75c1.64,3.24,3.82,5.81,6.56,7.66
		c2.94,1.98,6.12,2.96,9.51,2.89c4-0.09,7.99-0.16,11.98-0.25c1.96-0.04,3.92-0.12,5.88-0.18c3.35-0.05,6.7-0.1,10.06-0.15
		c0.28-0.01,0.68,0.16,0.82-0.25C105.72,111.99,105.33,111.79,105.13,111.55z"/>
	<g>
		<path class="st3" d="M100.87,87.51c1.27,0.84,3.12,1.54,5.07,1.54c2.89,0,4.58-1.65,4.58-4.03c0-2.21-1.17-3.47-4.13-4.7
			c-3.58-1.37-5.79-3.37-5.79-6.7c0-3.68,2.83-6.42,7.09-6.42c2.24,0,3.87,0.56,4.84,1.16l-0.78,2.49
			c-0.71-0.42-2.18-1.12-4.16-1.12c-2.99,0-4.13,1.93-4.13,3.54c0,2.21,1.33,3.3,4.36,4.56c3.71,1.54,5.59,3.47,5.59,6.94
			c0,3.65-2.5,6.8-7.67,6.8c-2.11,0-4.42-0.67-5.59-1.51L100.87,87.51z"/>
	</g>
</g>
</svg>
