<?xml version="1.0" encoding="utf-8"?>
<!-- Generator: Adobe Illustrator 24.0.1, SVG Export Plug-In . SVG Version: 6.00 Build 0)  -->
<svg version="1.1" id="Calque_1" xmlns="http://www.w3.org/2000/svg" xmlns:xlink="http://www.w3.org/1999/xlink" x="0px" y="0px"
	 viewBox="0 0 221 165" style="enable-background:new 0 0 221 165;" xml:space="preserve">
<style type="text/css">
	.st0{clip-path:url(#SVGID_2_);}
	.st1{clip-path:url(#SVGID_4_);fill-rule:evenodd;clip-rule:evenodd;fill:#D8CFCA;}
	.st2{clip-path:url(#SVGID_4_);fill-rule:evenodd;clip-rule:evenodd;fill:#AC9A8F;}
	.st3{fill:#432918;}
	.st4{clip-path:url(#SVGID_6_);fill-rule:evenodd;clip-rule:evenodd;fill:#432918;}
	.st5{clip-path:url(#SVGID_6_);fill:#493428;}
	.st6{clip-path:url(#SVGID_6_);fill:#2B2B2A;}
	.st7{clip-path:url(#SVGID_6_);fill:#432918;}
	.st8{clip-path:url(#SVGID_6_);fill-rule:evenodd;clip-rule:evenodd;fill:#725848;}
	.st9{clip-path:url(#SVGID_6_);fill-rule:evenodd;clip-rule:evenodd;fill:#2B2B2A;}
	.st10{clip-path:url(#SVGID_6_);fill-rule:evenodd;clip-rule:evenodd;fill:#836B5C;}
</style>
<g>
	<g>
		<defs>
			<rect id="SVGID_1_" x="32" y="-0.8" width="157" height="161.8"/>
		</defs>
		<clipPath id="SVGID_2_">
			<use xlink:href="#SVGID_1_"  style="overflow:visible;"/>
		</clipPath>
		<g class="st0">
			<defs>
				<rect id="SVGID_3_" x="32" y="-0.8" width="157" height="161.8"/>
			</defs>
			<clipPath id="SVGID_4_">
				<use xlink:href="#SVGID_3_"  style="overflow:visible;"/>
			</clipPath>
			<path class="st1" d="M78.9,57.5c0.9-0.9,1.9-1.7,2.8-2.5c0.2-0.2,0.2-0.4,0.1-0.7c-0.2-0.4-0.2-0.8-0.5-1.1c-1.5-2.1-0.6-4,0.7-6
				c0.7,1.8,1.5,3.5,2.2,5.3c1.5-1,1.5-1,0.9-2.4c-0.2-0.4-0.3-0.8-0.5-1.2c1-0.3,1.7-0.3,2,0.8c0.2,0.7,0.6,0,0.7-0.1
				c2.6-2.4,5.1-4.8,7.7-7.2c4.7-4.4,9.4-8.8,14.1-13.2c0.3-0.3,0.5-0.7,1.1-0.4c0.6,0.3,1.5,0.2,1.6,1.1c0,0.2,0.2,0.4,0,0.5
				c-0.8,0.5-0.4,1-0.2,1.6c1.8,4.3,3.5,8.5,5.3,12.8c0.1,0.3,0.2,0.7,0.8,0.5c0.4-0.1,0.5,0.1,0.7,0.4c0.3,0.8,0.6,1.6,1,2.4
				c0.2,0.5-0.1,0.8-0.5,1c-0.9,0.6-1,1.3-0.5,2.1c0.3,0.5,0.3,0.9-0.3,1.3c-0.6,0.4-0.7,0.8-0.5,1.4c0.2,0.5,0.7,0.8,1.3,0.8
				c0.7,0,1.2-0.4,1.4-1c0.1-0.2,0.1-0.5,0.2-0.7c0.7,0.5,0.6,1.6-0.2,2.1c-0.8,0.6-2,0.6-2.8,0c-0.8-0.6-1.3-1.9-0.6-2.6
				c0.9-0.9,0.4-1.6,0.1-2.4c-0.1-0.2-0.2-0.3-0.3-0.5c0.1,0.7-0.2,1.2-1,1.3c-0.4,0.1-0.7,0-0.9-0.4c-0.3-0.8-0.7-1.6-1-2.4
				c-0.1-0.2-0.1-0.5,0.1-0.7c0.5-0.4,0.4-0.7,0.2-1.2c-1.6-3.9-3.2-7.8-4.9-11.7c-0.1-0.4-0.3-0.7-0.5-1.2
				c-1.3,1.2-2.4,2.3-3.6,3.4c-7.8,7.3-15.5,14.5-23.3,21.8c-0.4,0.4-0.4,0.8-0.2,1.2c0.5,0.8,0.2,1.3-0.4,2c-1.3,1.5-3.1,2.3-5,2.8
				c-0.6,0.2-1,0.1-1.2-0.5c-0.6-1.5-1.2-3-1.9-4.5c-0.2-0.4-0.1-0.8,0.2-1.1c1.4-1.6,3.1-2.7,5.3-3.2c0.4-0.1,0.8-0.2,1.2,0.2
				c0.4,0.4,0.1,0.7-0.2,1c-0.3,0.4-0.6,0.8-0.9,1.1c-0.1,0.1-0.3,0.1-0.2,0.3C78.6,57.8,78.9,57.7,78.9,57.5 M115.1,46.3
				c0.3-0.5,1.4-0.3,0.9-1.3c-1.3-2.9-2.5-5.9-3.7-8.9c-0.6-1.5-1.2-2.9-1.8-4.4c-0.9,0.4-1.1,1-0.7,1.8c0.8,1.8,1.5,3.6,2.3,5.4
				C113.1,41.4,114.1,43.8,115.1,46.3"/>
			<path class="st1" d="M87.2,59.5c0.3,0.7,0.6,1.5,0.9,2.2c0.3,0.5,0.1,0.8-0.3,1.1c-0.5,0.3-0.9,0.7-1.4,1.1
				c-0.3,0.2-0.5,0.3-0.6-0.1c-0.6-1.6-1.3-3.1-1.9-4.7c-0.1-0.2,0-0.4,0.1-0.6c0.6-0.5,1.1-1,1.6-1.5c0.3-0.3,0.4-0.2,0.5,0.1
				C86.5,57.9,86.8,58.7,87.2,59.5"/>
			<path class="st1" d="M88.6,54.3c0.8,1.8,1.5,3.6,2.2,5.4c0.4,0.9-0.6,0.9-1,1.6c-0.5-1.2-0.9-2.2-1.4-3.3c-0.2-0.5-0.4-1-0.6-1.5
				C87.3,55.2,87.3,55.2,88.6,54.3"/>
			<path class="st2" d="M66.3,59.5c0-17.9,0-35.8,0-53.7c0-3.4,0.2-3.5,3.4-2.1C96.4,15.8,123,28,149.7,39.9c3.9,1.7,5,3.6,5,7.4
				c-0.2,22.1-0.1,44.2-0.1,66.3c0,1.9-0.2,3-2.9,3c-2.6,0-2.6-1.2-2.6-2.9c0-15.3,0-30.6,0-45.9c0-6.8-0.1-13.6,0-20.4
				c0-1.7-0.6-2.5-2.3-3.2c-22.3-9.6-44.1-19.8-66.1-29.8c-2-0.9-4-1.7-6-2.7c-2-1-3-1-2.9,1.5c0.2,2.5,0,5,0,7.5c0,31,0,62,0.1,93
				c0,2.6-0.9,3.3-3.6,3.1c-1.9-0.1-2.2-0.9-2.2-2.4c0.1-4.3,0-8.6,0-12.9L66.3,59.5L66.3,59.5z"/>
		</g>
		<g class="st0">
			<path class="st3" d="M64.5,139.9c-1.1,0.1-1.2,0.1-1.2,1.2v4.3c0,1.5-0.3,2.4-1.2,3.2c-0.5,0.4-0.9,0.6-1.3,0.7l-0.2-0.4
				c0.8-0.3,1.2-0.9,1.3-1.6c0.1-0.6,0.1-1.3,0.1-2.3v-4c0-1-0.1-1.1-1.2-1.2v-0.4h3.7V139.9z"/>
			<path class="st3" d="M70.1,147.3v-0.3c0.9-0.1,1-0.2,0.8-0.7c-0.2-0.5-0.4-1.1-0.7-1.8h-2.9c-0.2,0.5-0.4,1-0.6,1.5
				c-0.3,0.7-0.2,0.9,0.8,1v0.3h-3v-0.3c0.9-0.1,1.1-0.2,1.6-1.3l2.9-6.2l0.5-0.1c0.9,2.1,1.8,4.2,2.7,6.3c0.4,1.1,0.6,1.2,1.5,1.3
				v0.3H70.1z M68.8,141L68.8,141c-0.5,1-0.9,2-1.3,3H70L68.8,141z"/>
			<path class="st3" d="M82.5,147.4c-0.2,0-0.3,0-0.5,0c-1.1,0-1.7-0.3-2.3-1.1c-0.5-0.6-0.9-1.3-1.3-1.9c-0.2-0.3-0.5-0.5-1.2-0.5
				h-0.4v1.9c0,1,0.1,1.1,1.2,1.2v0.3h-3.7v-0.3c1.1-0.1,1.2-0.2,1.2-1.2V141c0-1-0.1-1.1-1.2-1.2v-0.4h3.5c1,0,1.7,0.1,2.2,0.4
				c0.6,0.3,0.9,0.8,0.9,1.6c0,1-0.7,1.7-1.7,2c0.2,0.4,0.8,1.2,1.2,1.7c0.5,0.6,0.8,1,1.1,1.3c0.3,0.4,0.6,0.5,1,0.5L82.5,147.4z
				 M77.5,143.5c0.7,0,1.1-0.1,1.5-0.3c0.5-0.4,0.7-0.8,0.7-1.5c0-1.3-0.9-1.8-2-1.8c-0.4,0-0.6,0-0.7,0.1c-0.1,0.1-0.1,0.2-0.1,0.5
				v2.9H77.5z"/>
			<path class="st3" d="M89.6,147.3c-1-1-2.1-2.1-3.3-3.4c-0.3-0.3-0.5-0.4-0.7-0.4v2.2c0,1.1,0.1,1.2,1.3,1.2v0.3h-3.7v-0.3
				c1.1-0.1,1.2-0.2,1.2-1.2v-4.6c0-1.1-0.1-1.2-1.2-1.2v-0.4h3.6v0.4c-1.1,0.1-1.2,0.1-1.2,1.2v2.1c0.3-0.1,0.6-0.2,1-0.6
				c0.8-0.7,1.7-1.5,2.2-2.1c0.4-0.4,0.4-0.6-0.2-0.6l-0.3,0v-0.4h3.4v0.4c-1,0.1-1.4,0.2-2.2,0.9c-0.6,0.5-1.5,1.3-2.4,2
				c1,1.1,2.5,2.6,3.2,3.3c0.7,0.7,1,0.8,1.6,0.9v0.3H89.6z"/>
			<path class="st3" d="M96.8,139.3c2.4,0,4.6,1.6,4.6,4c0,2.6-2.2,4.2-4.8,4.2c-2.6,0-4.6-1.7-4.6-4
				C92,141.3,93.8,139.3,96.8,139.3L96.8,139.3z M96.5,139.8c-1.5,0-3,1.1-3,3.4c0,2.2,1.5,3.9,3.4,3.9c1.5,0,2.9-1.1,2.9-3.4
				C99.8,141.1,98.3,139.8,96.5,139.8L96.5,139.8z"/>
			<path class="st3" d="M109.6,141.4c-0.1-0.6-0.3-0.9-0.5-1.1c-0.2-0.3-0.5-0.4-1.5-0.4h-0.9v5.8c0,0.9,0.1,1.1,1.4,1.2v0.3h-4
				v-0.3c1.3-0.1,1.4-0.2,1.4-1.2V140h-0.8c-1.2,0-1.5,0.1-1.7,0.4c-0.2,0.2-0.3,0.6-0.5,1.1h-0.4c0.1-0.8,0.1-1.6,0.2-2.2h0.3
				c0.2,0.3,0.4,0.3,0.8,0.3h5.5c0.4,0,0.5-0.1,0.7-0.3h0.3c0,0.5,0.1,1.5,0.1,2.2L109.6,141.4z"/>
			<path class="st3" d="M115,147.3v-0.3c0.8-0.1,1-0.2,0.8-0.7c-0.2-0.5-0.4-1.1-0.7-1.8h-2.9c-0.2,0.5-0.4,1-0.6,1.5
				c-0.3,0.7-0.2,0.9,0.8,1v0.3h-3v-0.3c0.9-0.1,1.1-0.2,1.6-1.3l2.9-6.2l0.5-0.1c0.9,2.1,1.8,4.2,2.7,6.3c0.4,1.1,0.6,1.2,1.5,1.3
				v0.3H115z M113.7,141L113.7,141c-0.5,1-0.9,2-1.3,3h2.5L113.7,141z"/>
			<path class="st3" d="M126.3,139.9c-1,0.1-1.1,0.2-1.7,1c-0.6,0.8-1.1,1.5-1.7,2.5c-0.2,0.3-0.2,0.5-0.2,0.8v1.6
				c0,1,0.1,1.1,1.4,1.2v0.3h-4v-0.3c1.2-0.1,1.3-0.2,1.3-1.2v-1.5c0-0.3-0.1-0.4-0.3-0.7c-0.4-0.7-0.9-1.5-1.7-2.6
				c-0.5-0.8-0.7-1-1.5-1v-0.4h3.4v0.4c-1,0.1-0.9,0.3-0.7,0.7c0.6,0.9,1.2,1.9,1.8,2.8c0.5-0.8,1.3-2,1.6-2.7
				c0.3-0.6,0.2-0.7-0.8-0.8v-0.4h3.1V139.9z"/>
			<path class="st3" d="M138.3,147.3v-0.3c1.1-0.1,1.2-0.2,1.1-1.4l0-4.8h-0.1l-3.3,6.5h-0.3l-3.1-6.3h0l-0.2,3.4
				c-0.1,1-0.1,1.5,0,2c0,0.6,0.3,0.6,1.3,0.7v0.4h-3.2v-0.4c0.8-0.1,1.1-0.2,1.2-0.7c0.1-0.4,0.2-0.9,0.3-2.2l0.2-2.4
				c0.1-1.6,0-1.6-1.2-1.7v-0.4h2.3l3.1,5.9l3.1-5.9h2.4v0.4c-1.2,0.1-1.3,0.1-1.2,1.3l0.1,4.3c0,1.3,0.1,1.3,1.3,1.4v0.3H138.3z"/>
			<path class="st3" d="M148.3,147.3v-0.3c0.8-0.1,1-0.2,0.8-0.7c-0.2-0.5-0.4-1.1-0.7-1.8h-2.9c-0.2,0.5-0.4,1-0.6,1.5
				c-0.3,0.7-0.2,0.9,0.9,1v0.3h-3v-0.3c0.9-0.1,1.1-0.2,1.6-1.3l2.9-6.2l0.5-0.1c0.9,2.1,1.8,4.2,2.7,6.3c0.4,1.1,0.6,1.2,1.5,1.3
				v0.3H148.3z M147,141L147,141c-0.5,1-0.9,2-1.3,3h2.5L147,141z"/>
			<path class="st3" d="M160.7,147.4c-0.2,0-0.3,0-0.5,0c-1.1,0-1.7-0.3-2.3-1.1c-0.5-0.6-0.9-1.3-1.3-1.9c-0.2-0.3-0.5-0.5-1.2-0.5
				h-0.4v1.9c0,1,0.1,1.1,1.2,1.2v0.3h-3.7v-0.3c1.1-0.1,1.2-0.2,1.2-1.2V141c0-1-0.1-1.1-1.2-1.2v-0.4h3.5c1,0,1.7,0.1,2.2,0.4
				c0.6,0.3,0.9,0.8,0.9,1.6c0,1-0.7,1.7-1.7,2c0.2,0.4,0.8,1.2,1.2,1.7c0.5,0.6,0.8,1,1.1,1.3c0.3,0.4,0.6,0.5,1,0.5L160.7,147.4z
				 M155.7,143.5c0.7,0,1.1-0.1,1.5-0.3c0.5-0.4,0.7-0.8,0.7-1.5c0-1.3-0.9-1.8-2-1.8c-0.4,0-0.6,0-0.7,0.1
				c-0.1,0.1-0.1,0.2-0.1,0.5v2.9H155.7z"/>
			<path class="st3" d="M165.9,139.3c2.4,0,4.6,1.6,4.6,4c0,2.6-2.2,4.2-4.8,4.2c-2.6,0-4.6-1.7-4.6-4
				C161.1,141.3,162.9,139.3,165.9,139.3L165.9,139.3z M165.6,139.8c-1.5,0-3,1.1-3,3.4c0,2.2,1.5,3.9,3.4,3.9
				c1.5,0,2.9-1.1,2.9-3.4C169,141.1,167.4,139.8,165.6,139.8L165.6,139.8z"/>
			<path class="st3" d="M180.4,145.2c-0.2,0.6-0.6,1.5-0.8,1.9c-0.4,0.1-1.6,0.3-2.6,0.3c-3.5,0-5.1-2.1-5.1-4
				c0-2.5,2.3-4.2,5.4-4.2c1.2,0,2.2,0.3,2.5,0.3c0.1,0.7,0.2,1.2,0.3,1.9l-0.4,0.1c-0.4-1.3-1.3-1.8-2.8-1.8
				c-2.3,0-3.6,1.7-3.6,3.5c0,2.3,1.5,3.8,3.7,3.8c1.4,0,2.2-0.7,2.9-1.9L180.4,145.2z"/>
		</g>
		<g class="st0">
			<defs>
				<rect id="SVGID_5_" x="32" y="-0.8" width="157" height="161.8"/>
			</defs>
			<clipPath id="SVGID_6_">
				<use xlink:href="#SVGID_5_"  style="overflow:visible;"/>
			</clipPath>
			<polygon class="st4" points="102.4,57 102.3,74.1 120.3,69.1 128.9,74.1 129.1,69.3 			"/>
			<polygon class="st5" points="176.6,94.6 166.9,91.2 161.8,89.4 159.7,101.6 166.3,103.9 166.5,102.7 166.5,104 176.9,107.6 			
				"/>
			<path class="st5" d="M157.9,101l-0.8-4.2c-0.5-3.1-1.3-7.2-1.8-9.6l-14.7-5.2V95L157.9,101z"/>
			<path class="st6" d="M176.6,94.6l0.7,27.7l-10.4,3.2l-0.4-22.8l-3.8,22.8h-7.4l-4.5-25.2l0.1,25.2h-10.4V82.1l14.7,5.2
				c0.5,2.3,1.3,6.5,1.8,9.6l1.8,9.5l3-16.9L176.6,94.6z"/>
			<polyline class="st7" points="106.6,53.7 116.2,57.6 150.7,60.4 168.1,81.3 176.7,83.8 176.7,90.8 176.1,92.5 162.4,88 
				146.3,69.6 116.2,61.7 101.9,55.6 105.9,53.7 			"/>
			<path class="st8" d="M35.3,134.1c-17.5,3.7,37.9-16.3,90-6.7c13.4,2.5,41.5,4.4,63.6-3.8c-38.3,12.1-66.6,15.3-89,8.4
				C90.6,129,59.2,129.1,35.3,134.1"/>
			<path class="st9" d="M48.6,137c-15.7,3.1,33.6-12.2,80.9-8.2c12.2,1.1,37.5,1.1,57.2-5.1c-34.1,9.5-59.5,12.8-79.9,9.2
				C98.2,131.4,69.9,132.8,48.6,137"/>
			<polygon class="st10" points="54.2,111.4 66.3,111.4 66.3,2.9 54.2,7.6 			"/>
			<path class="st9" d="M54.3,127.8c0-8.9,0-17.8-0.1-26.6c0-1,0.2-1.5,1.5-1.6c3.9-0.5,5-1.1,9-1.8c1.6-0.3,1.7,0.3,1.7,1.4
				c0,3.9,0,7.8,0,11.7c0,2.2,3.3,1.9,4.9,1.8c4.5-0.4,9-0.7,13.5-1c1.6-0.1,1.7-0.8,1.7-2c0-8.4,0-16.8,0-25.3c0-1.7,0-3.4,0-5
				c0-1-0.3-1.5-1.5-1.1c-0.9,0.3-1.8,0.3-2.7,0.6c-4.3,1.1-4.3,1.1-4.3-2.9c0-3.4,0.1-6.7,0-10.1c-0.1-1.6,0.6-2.3,2.2-2.8
				c6.5-1.9,13-4,19.4-6.1c1.1-0.3,2-0.6,3.2-0.1c8.4,3.7,16.8,7.5,25.3,11c2.8,1.1,1.9,3,2,4.8c0,0.7,0.5,1.7-0.3,2.1
				c-0.8,0.4-1.5-0.5-2.2-0.9c-2-1-3.9-2.1-5.8-3.2c-1.2-0.8-2.4-0.6-3.6-0.3c-5.2,1.2-10.3,2.5-15.5,3.7c-1.4,0.3-1.1,1.1-1.1,1.9
				c0,4.7,0,9.3,0,14c0,11.8,0,23.6,0,35.4C85.5,125.3,69.8,125.9,54.3,127.8"/>
			<path class="st7" d="M114.4,74.6l7,2.2l-0.1,18.9l6-17.1l12.2,3.8l-7.8,18.2l7.6,24.9h-13.1l-5-20.9l-0.2,20.9h-12.7V81.8v-0.4
				c0-0.3,0-0.7,0.3-1c1.6-1.9,3.8-4.3,4.9-5.6"/>
		</g>
	</g>
</g>
</svg>
